HIERARCHY
ROOT Hips
{
	OFFSET -0.087744 88.518600 4.106688
	CHANNELS 6 Xposition Yposition Zposition Zrotation Yrotation Xrotation 
	JOINT Spine
	{
		OFFSET 0.000000 8.814246 -2.080107
		CHANNELS 3 Zrotation Yrotation Xrotation
		JOINT Spine1
		{
			OFFSET -0.000000 8.844141 -0.000000
			CHANNELS 3 Zrotation Yrotation Xrotation
			JOINT Spine2
			{
				OFFSET 0.000000 11.682268 0.000000
				CHANNELS 3 Zrotation Yrotation Xrotation
				JOINT Spine3
				{
					OFFSET 0.000000 11.746700 0.000000
					CHANNELS 3 Zrotation Yrotation Xrotation
					JOINT Neck
					{
						OFFSET 0.000000 17.658264 -0.000000
						CHANNELS 3 Zrotation Yrotation Xrotation
						JOINT Neck1
						{
							OFFSET -0.000000 5.101515 -0.000000
							CHANNELS 3 Zrotation Yrotation Xrotation
							JOINT Head
							{
								OFFSET -0.000000 5.101515 -0.000000
								CHANNELS 3 Zrotation Yrotation Xrotation
								JOINT HeadEnd
								{
									OFFSET 0.000000 11.655085 0.000000
									CHANNELS 3 Zrotation Yrotation Xrotation
									End Site
									{
										OFFSET 0.000000 0.000000 0.000000
									}
								}
							}
						}
					}
					JOINT RightShoulder
					{
						OFFSET -2.625389 11.175210 0.000000
						CHANNELS 3 Zrotation Yrotation Xrotation
						JOINT RightArm
						{
							OFFSET 0.000000 10.434715 -0.000000
							CHANNELS 3 Zrotation Yrotation Xrotation
							JOINT RightForeArm
							{
								OFFSET -0.000000 29.628420 0.000000
								CHANNELS 3 Zrotation Yrotation Xrotation
								JOINT RightHand
								{
									OFFSET -0.000000 22.857611 0.000000
									CHANNELS 3 Zrotation Yrotation Xrotation
									JOINT RightHandThumb1
									{
										OFFSET -2.867323 3.959563 2.944291
										CHANNELS 3 Zrotation Yrotation Xrotation
										JOINT RightHandThumb2
										{
											OFFSET -0.000000 3.350399 0.000000
											CHANNELS 3 Zrotation Yrotation Xrotation
											JOINT RightHandThumb3
											{
												OFFSET 0.000000 3.756509 -0.000000
												CHANNELS 3 Zrotation Yrotation Xrotation
												JOINT RightHandThumb4
												{
													OFFSET -0.000000 3.147345 0.000000
													CHANNELS 3 Zrotation Yrotation Xrotation
													End Site
													{
														OFFSET 0.000000 0.000000 0.000000
													}
												}
											}
										}
									}
									JOINT RightHandIndex1
									{
										OFFSET -0.086752 10.030893 2.345280
										CHANNELS 3 Zrotation Yrotation Xrotation
										JOINT RightHandIndex2
										{
											OFFSET 0.000000 4.061090 -0.000000
											CHANNELS 3 Zrotation Yrotation Xrotation
											JOINT RightHandIndex3
											{
												OFFSET 0.000000 3.248873 -0.000000
												CHANNELS 3 Zrotation Yrotation Xrotation
												JOINT RightHandIndex4
												{
													OFFSET 0.000000 2.639709 -0.000000
													CHANNELS 3 Zrotation Yrotation Xrotation
													End Site
													{
														OFFSET 0.000000 0.000000 0.000000
													}
												}
											}
										}
									}
									JOINT RightHandMiddle1
									{
										OFFSET 0.104102 9.502952 0.006768
										CHANNELS 3 Zrotation Yrotation Xrotation
										JOINT RightHandMiddle2
										{
											OFFSET 0.000000 4.568727 -0.000000
											CHANNELS 3 Zrotation Yrotation Xrotation
											JOINT RightHandMiddle3
											{
												OFFSET -0.000000 3.654981 0.000000
												CHANNELS 3 Zrotation Yrotation Xrotation
												JOINT RightHandMiddle4
												{
													OFFSET 0.000000 2.741236 0.000000
													CHANNELS 3 Zrotation Yrotation Xrotation
													End Site
													{
														OFFSET 0.000000 0.000000 0.000000
													}
												}
											}
										}
									}
									JOINT RightHandRing1
									{
										OFFSET 0.086752 8.921708 -2.267442
										CHANNELS 3 Zrotation Yrotation Xrotation
										JOINT RightHandRing2
										{
											OFFSET 0.000000 4.061090 -0.000000
											CHANNELS 3 Zrotation Yrotation Xrotation
											JOINT RightHandRing3
											{
												OFFSET -0.000000 3.654981 0.000000
												CHANNELS 3 Zrotation Yrotation Xrotation
												JOINT RightHandRing4
												{
													OFFSET 0.000000 2.741236 -0.000000
													CHANNELS 3 Zrotation Yrotation Xrotation
													End Site
													{
														OFFSET 0.000000 0.000000 0.000000
													}
												}
											}
										}
									}
									JOINT RightHandPinky1
									{
										OFFSET -0.173504 7.976997 -4.467199
										CHANNELS 3 Zrotation Yrotation Xrotation
										JOINT RightHandPinky2
										{
											OFFSET 0.000000 3.350399 0.000000
											CHANNELS 3 Zrotation Yrotation Xrotation
											JOINT RightHandPinky3
											{
												OFFSET 0.000000 2.842763 -0.000000
												CHANNELS 3 Zrotation Yrotation Xrotation
												JOINT RightHandPinky4
												{
													OFFSET -0.000000 2.639709 -0.000000
													CHANNELS 3 Zrotation Yrotation Xrotation
													End Site
													{
														OFFSET 0.000000 0.000000 0.000000
													}
												}
											}
										}
									}
									JOINT RightForeArmEnd
									{
										OFFSET 0.000000 0.000000 0.000000
										CHANNELS 3 Zrotation Yrotation Xrotation
										End Site
										{
											OFFSET 0.000000 0.000000 0.000000
										}
									}
								}
								JOINT RightArmEnd
								{
									OFFSET 0.000000 0.000000 0.000000
									CHANNELS 3 Zrotation Yrotation Xrotation
									End Site
									{
										OFFSET 0.000000 0.000000 0.000000
									}
								}
							}
						}
					}
					JOINT LeftShoulder
					{
						OFFSET 2.625389 11.175210 -0.000000
						CHANNELS 3 Zrotation Yrotation Xrotation
						JOINT LeftArm
						{
							OFFSET -0.000000 10.813635 0.000000
							CHANNELS 3 Zrotation Yrotation Xrotation
							JOINT LeftForeArm
							{
								OFFSET -0.000000 28.724781 0.000000
								CHANNELS 3 Zrotation Yrotation Xrotation
								JOINT LeftHand
								{
									OFFSET 0.644384 25.716167 -0.328871
									CHANNELS 3 Zrotation Yrotation Xrotation
									JOINT LeftHandThumb1
									{
										OFFSET 2.867323 3.959563 2.944291
										CHANNELS 3 Zrotation Yrotation Xrotation
										JOINT LeftHandThumb2
										{
											OFFSET -0.000000 3.350399 0.000000
											CHANNELS 3 Zrotation Yrotation Xrotation
											JOINT LeftHandThumb3
											{
												OFFSET -0.000000 3.756509 -0.000000
												CHANNELS 3 Zrotation Yrotation Xrotation
												JOINT LeftHandThumb4
												{
													OFFSET 0.000000 3.100000 -0.000000
													CHANNELS 3 Zrotation Yrotation Xrotation
													End Site
													{
														OFFSET 0.000000 0.000000 0.000000
													}
												}
											}
										}
									}
									JOINT LeftHandIndex1
									{
										OFFSET 0.086752 10.030893 2.345280
										CHANNELS 3 Zrotation Yrotation Xrotation
										JOINT LeftHandIndex2
										{
											OFFSET -0.000000 4.061090 0.000000
											CHANNELS 3 Zrotation Yrotation Xrotation
											JOINT LeftHandIndex3
											{
												OFFSET 0.000000 3.248873 0.000000
												CHANNELS 3 Zrotation Yrotation Xrotation
												JOINT LeftHandIndex4
												{
													OFFSET 0.000000 2.639709 -0.000000
													CHANNELS 3 Zrotation Yrotation Xrotation
													End Site
													{
														OFFSET 0.000000 0.000000 0.000000
													}
												}
											}
										}
									}
									JOINT LeftHandMiddle1
									{
										OFFSET -0.104102 9.502952 0.006768
										CHANNELS 3 Zrotation Yrotation Xrotation
										JOINT LeftHandMiddle2
										{
											OFFSET 0.000000 4.568727 -0.000000
											CHANNELS 3 Zrotation Yrotation Xrotation
											JOINT LeftHandMiddle3
											{
												OFFSET 0.000000 3.654981 0.000000
												CHANNELS 3 Zrotation Yrotation Xrotation
												JOINT LeftHandMiddle4
												{
													OFFSET -0.000000 2.741236 -0.000000
													CHANNELS 3 Zrotation Yrotation Xrotation
													End Site
													{
														OFFSET 0.000000 0.000000 0.000000
													}
												}
											}
										}
									}
									JOINT LeftHandRing1
									{
										OFFSET -0.086752 8.921708 -2.267442
										CHANNELS 3 Zrotation Yrotation Xrotation
										JOINT LeftHandRing2
										{
											OFFSET -0.000000 4.061090 -0.000000
											CHANNELS 3 Zrotation Yrotation Xrotation
											JOINT LeftHandRing3
											{
												OFFSET 0.000000 3.654981 0.000000
												CHANNELS 3 Zrotation Yrotation Xrotation
												JOINT LeftHandRing4
												{
													OFFSET -0.000000 2.741236 -0.000000
													CHANNELS 3 Zrotation Yrotation Xrotation
													End Site
													{
														OFFSET 0.000000 0.000000 0.000000
													}
												}
											}
										}
									}
									JOINT LeftHandPinky1
									{
										OFFSET 0.173504 7.976997 -4.467199
										CHANNELS 3 Zrotation Yrotation Xrotation
										JOINT LeftHandPinky2
										{
											OFFSET 0.000000 3.350399 0.000000
											CHANNELS 3 Zrotation Yrotation Xrotation
											JOINT LeftHandPinky3
											{
												OFFSET -0.000000 2.842763 -0.000000
												CHANNELS 3 Zrotation Yrotation Xrotation
												JOINT LeftHandPinky4
												{
													OFFSET -0.000000 2.639709 -0.000000
													CHANNELS 3 Zrotation Yrotation Xrotation
													End Site
													{
														OFFSET 0.000000 0.000000 0.000000
													}
												}
											}
										}
									}
									JOINT LeftForeArmEnd
									{
										OFFSET 0.000000 0.000000 0.000000
										CHANNELS 3 Zrotation Yrotation Xrotation
										End Site
										{
											OFFSET 0.000000 0.000000 0.000000
										}
									}
								}
								JOINT LeftArmEnd
								{
									OFFSET 0.000000 0.000000 0.000000
									CHANNELS 3 Zrotation Yrotation Xrotation
									End Site
									{
										OFFSET 0.000000 0.000000 0.000000
									}
								}
							}
						}
					}
				}
			}
		}
	}
	JOINT RightUpLeg
	{
		OFFSET -11.289943 0.000000 0.000000
		CHANNELS 3 Zrotation Yrotation Xrotation
		JOINT RightLeg
		{
			OFFSET -0.000000 -38.200325 -0.000000
			CHANNELS 3 Zrotation Yrotation Xrotation
			JOINT RightFoot
			{
				OFFSET -0.000000 -39.900856 -0.000000
				CHANNELS 3 Zrotation Yrotation Xrotation
				JOINT RightToeBase
				{
					OFFSET 0.000000 0.000000 15.261641
					CHANNELS 3 Zrotation Yrotation Xrotation
					JOINT RightToeBaseEnd
					{
						OFFSET 0.000000 0.000000 7.370709
						CHANNELS 3 Zrotation Yrotation Xrotation
						End Site
						{
							OFFSET 0.000000 0.000000 0.000000
						}
					}
				}
				JOINT RightLegEnd
				{
					OFFSET 0.000000 0.000000 0.000000
					CHANNELS 3 Zrotation Yrotation Xrotation
					End Site
					{
						OFFSET 0.000000 0.000000 0.000000
					}
				}
			}
			JOINT RightUpLegEnd
			{
				OFFSET 0.000000 0.000000 0.000000
				CHANNELS 3 Zrotation Yrotation Xrotation
				End Site
				{
					OFFSET 0.000000 0.000000 0.000000
				}
			}
		}
	}
	JOINT LeftUpLeg
	{
		OFFSET 11.315661 0.000000 -0.000000
		CHANNELS 3 Zrotation Yrotation Xrotation
		JOINT LeftLeg
		{
			OFFSET 0.000000 -38.200325 0.000000
			CHANNELS 3 Zrotation Yrotation Xrotation
			JOINT LeftFoot
			{
				OFFSET 0.000000 -39.900856 -0.000000
				CHANNELS 3 Zrotation Yrotation Xrotation
				JOINT LeftToeBase
				{
					OFFSET 0.000000 0.000000 15.261641
					CHANNELS 3 Zrotation Yrotation Xrotation
					JOINT LeftToeBaseEnd
					{
						OFFSET -0.000000 0.000000 7.539996
						CHANNELS 3 Zrotation Yrotation Xrotation
						End Site
						{
							OFFSET 0.000000 0.000000 0.000000
						}
					}
				}
				JOINT LeftLegEnd
				{
					OFFSET 0.000000 0.000000 0.000000
					CHANNELS 3 Zrotation Yrotation Xrotation
					End Site
					{
						OFFSET 0.000000 0.000000 0.000000
					}
				}
			}
			JOINT LeftUpLegEnd
			{
				OFFSET 0.000000 0.000000 0.000000
				CHANNELS 3 Zrotation Yrotation Xrotation
				End Site
				{
					OFFSET 0.000000 0.000000 0.000000
				}
			}
		}
	}
}
MOTION
Frames: 4
Frame Time: 0.016667
-0.087744 88.518600 4.106688 0.068919 0.010845 -8.942659 0.442413 -0.081069 6.970063 -1.393128 0.231170 0.120594 0.170773 -1.686916 3.633183 0.138037 -0.360124 1.632820 2.669741 1.360534 7.336633 0.504304 2.812674 -2.138667 -0.849185 -0.825950 -18.014040 0.000000 0.000000 0.000000 93.328857 -0.532019 9.249256 66.106537 -37.119999 4.142115 -0.118903 9.345549 21.275049 6.844851 17.264309 -6.195918 11.236529 -1.888869 39.607235 0.000000 0.000000 -27.360001 0.000000 0.000000 -18.999998 0.000000 0.000000 0.000000 16.490267 0.000000 -10.411167 11.543185 0.000000 0.000000 11.543185 0.000000 0.000000 0.000000 0.000000 0.000000 15.680838 0.000000 -10.611974 10.976586 0.000000 0.000000 10.976586 0.000000 0.000000 0.000000 0.000000 0.000000 17.926441 -0.000000 -9.075776 12.548511 0.000000 0.000000 12.548511 0.000000 0.000000 0.000000 0.000000 0.000000 19.209045 0.000000 -9.362014 13.446335 0.000000 0.000000 13.446335 0.000000 0.000000 0.000000 0.000000 0.000000 0.000000 0.000000 0.000000 0.000000 0.000000 0.000000 -92.264565 0.184447 4.508586 -67.528290 31.026754 -4.429007 -0.724142 -2.563973 37.835682 -1.518325 -21.259672 -14.755241 -10.637670 1.840800 39.870987 0.000000 0.000000 -25.919998 0.000000 0.000000 -18.000004 0.000000 0.000000 0.000000 -13.737988 0.000000 -10.271245 -9.616590 0.000000 0.000000 -9.616590 0.000000 0.000000 0.000000 0.000000 0.000000 -13.566373 0.000000 -10.909574 -9.496462 0.000000 0.000000 -9.496462 0.000000 0.000000 0.000000 0.000000 0.000000 -16.906538 -0.000000 -11.246544 -11.834577 0.000000 0.000000 -11.834577 0.000000 0.000000 0.000000 0.000000 0.000000 -19.165680 -0.000000 -11.938169 -13.415976 0.000000 0.000000 -13.415976 0.000000 0.000000 0.000000 0.000000 0.000000 0.000000 0.000000 0.000000 0.000000 0.000000 0.000000 -1.938379 -12.547268 14.781528 -0.051716 -0.791252 3.432337 -0.790947 -7.985100 17.498075 -0.970069 1.135202 -17.740036 0.000000 0.000000 0.000000 0.000000 0.000000 0.000000 0.000000 0.000000 0.000000 -1.007299 -7.770874 9.427107 0.095226 0.552794 9.721728 1.664590 4.975721 15.629977 0.746320 -0.643483 -19.338871 0.000000 0.000000 0.000000 0.000000 0.000000 0.000000 0.000000 0.000000 0.000000 
-0.058339 88.517517 3.870948 -0.430942 -0.139297 -9.185674 1.492886 -0.212584 6.452140 -1.254269 0.226637 1.672268 0.129005 -1.301831 2.018703 -0.983710 -0.346650 3.515512 3.153977 1.304782 5.516258 1.357779 2.918793 -2.207465 -0.627119 -1.131521 -17.189386 0.000000 0.000000 0.000000 92.508904 -0.527164 9.815499 67.304855 -35.474949 4.504495 0.012289 10.919530 21.333878 6.527449 15.006276 -4.859023 11.021642 -1.861963 39.730339 0.000001 0.000025 -26.994884 0.000017 0.000035 -18.630444 0.000007 0.000000 -0.000028 15.641684 -0.139232 -8.864406 11.137803 -0.034959 -0.093131 11.308528 -0.015869 -0.107037 -0.000020 0.000025 -0.000022 15.300427 -0.051034 -9.766252 10.695427 -0.008093 -0.046779 10.743708 -0.003285 -0.046573 0.000012 0.000035 0.000003 17.577507 0.038963 -9.093242 12.037650 0.019087 0.084782 12.046721 0.001346 0.074385 -0.000008 0.000903 -0.000001 18.295116 0.096025 -10.040625 12.716788 0.002136 0.447691 12.496257 -0.018472 0.373527 -0.000255 -0.000004 0.000017 0.000000 0.000000 0.000000 0.000000 0.000000 0.000000 -89.962639 0.026461 6.473048 -68.571274 28.240215 -3.768018 -0.781218 -4.048869 38.731976 0.844228 -18.133547 -16.411610 -10.257843 1.762362 40.064129 -0.000001 0.000025 -24.919798 -0.000019 -0.000024 -17.390841 0.000043 -0.000002 0.000779 -13.484568 -0.076932 -9.081534 -9.479916 -0.037460 -0.043400 -9.827252 -0.027384 -0.014297 0.000019 0.000178 0.000010 -13.348357 -0.028903 -9.890101 -9.335561 -0.014055 -0.004236 -9.223499 -0.004291 0.002765 0.001012 -0.000046 0.000009 -16.592962 0.073330 -10.278637 -11.397228 0.016143 -0.049755 -11.287643 0.007207 -0.030954 0.000247 0.000009 0.000007 -18.185595 0.187112 -10.989207 -12.661203 0.050087 -0.108017 -12.600513 0.007004 -0.151287 0.000014 -0.000005 -0.000037 0.000000 0.000000 0.000000 0.000000 0.000000 0.000000 -2.269642 -11.574273 14.852510 -0.079733 -0.779528 4.238907 -0.980485 -9.258408 16.967978 -1.087722 1.112134 -17.046465 0.000000 0.000000 0.000000 0.000000 0.000000 0.000000 0.000000 0.000000 0.000000 0.484600 -4.936129 9.884545 0.099264 0.507020 9.813320 1.616775 2.713884 15.895770 0.562479 -0.495485 -20.109838 0.000000 0.000000 0.000000 0.000000 0.000000 0.000000 0.000000 0.000000 0.000000 
-0.046374 88.489998 3.778995 -0.345969 -0.039136 -9.011120 1.371455 -0.221025 6.421595 -1.327366 0.230415 1.799101 0.146952 -1.408251 1.838037 -0.919163 -0.407222 3.624979 3.254278 1.094229 5.451992 1.396060 2.817307 -2.113589 -0.594182 -1.110226 -17.207325 0.000000 0.000000 0.000000 92.283585 -0.514218 9.917259 67.259209 -35.395519 4.797588 -0.030964 11.020814 21.516207 6.366263 14.461497 -4.825386 11.021646 -1.858955 39.732399 0.000000 0.000038 -27.007992 0.000021 0.000031 -18.648335 0.000011 0.000003 -0.000037 15.641826 -0.127435 -8.688855 11.174274 -0.025327 -0.134367 11.358162 -0.004518 -0.143769 -0.000006 0.000037 -0.000018 15.305102 -0.046513 -9.600582 10.726040 -0.006581 -0.060199 10.757357 -0.000181 -0.055201 0.000013 0.000029 -0.000006 17.491995 0.028267 -8.954331 11.974155 0.016101 0.091388 12.003322 -0.001372 0.081384 -0.000014 0.001014 -0.000003 18.152170 0.067295 -9.983022 12.618107 -0.004772 0.460948 12.386435 -0.028302 0.392725 -0.000378 0.000003 0.000014 0.000000 0.000000 0.000000 0.000000 0.000000 0.000000 -89.568489 -0.041684 6.594175 -69.049805 27.905708 -3.654607 -0.647077 -3.859198 38.711678 1.295000 -17.505682 -16.285080 -10.218149 1.747670 40.078541 0.000005 0.000029 -24.866919 -0.000029 -0.000018 -17.358557 -0.000134 0.000001 0.000614 -13.311088 -0.059325 -8.816504 -9.604263 -0.033600 -0.034858 -9.941387 -0.021978 -0.010886 0.000024 0.000221 0.000011 -13.182868 -0.021892 -9.706919 -9.457596 -0.013118 -0.002985 -9.331777 -0.002908 0.003265 0.001205 -0.000043 -0.000012 -16.369928 0.068361 -10.239038 -11.442040 0.015384 -0.053478 -11.338144 0.005010 -0.034340 0.000357 0.000014 0.000007 -17.909973 0.171127 -11.047041 -12.634021 0.039904 -0.124056 -12.556124 -0.002885 -0.158714 0.000038 0.000007 -0.000053 0.000000 0.000000 0.000000 0.000000 0.000000 0.000000 -2.398098 -11.814133 14.457976 -0.080382 -0.778229 4.424965 -0.831714 -9.337833 16.914900 -1.104046 1.124672 -16.986261 0.000000 0.000000 0.000000 0.000000 0.000000 0.000000 0.000000 0.000000 0.000000 0.422721 -4.860299 9.411111 0.099856 0.490114 10.063805 1.657686 2.591206 15.964476 0.549758 -0.493701 -20.104712 0.000000 0.000000 0.000000 0.000000 0.000000 0.000000 0.000000 0.000000 0.000000 
-0.057086 88.466400 3.682953 -0.272314 0.008166 -8.852643 1.276986 -0.211224 6.416848 -1.390012 0.241626 1.927656 0.153012 -1.457231 1.686208 -0.910618 -0.442215 3.736443 3.286381 0.923307 5.329375 1.431316 2.668742 -2.113671 -0.555755 -1.113960 -17.247040 0.000000 0.000000 0.000000 92.048599 -0.497850 10.040967 67.188515 -35.290493 5.044150 -0.050196 11.297090 21.881483 6.576974 13.930255 -4.654716 11.008756 -1.849436 39.747208 0.000002 0.000037 -26.992430 0.000021 0.000032 -18.640295 0.000011 0.000003 -0.000036 15.634933 -0.120834 -8.471307 11.261021 -0.012945 -0.172188 11.449152 0.009074 -0.177066 -0.000006 0.000037 -0.000018 15.293254 -0.044446 -9.390728 10.799375 -0.003039 -0.073663 10.819070 0.004167 -0.065186 0.000013 0.000032 -0.000004 17.419685 0.023153 -8.777007 11.959713 0.010994 0.098582 11.997420 -0.005349 0.088704 -0.000012 0.001105 -0.000002 18.062710 0.056029 -9.886082 12.557809 -0.019005 0.479280 12.318149 -0.042801 0.414329 -0.000461 0.000002 0.000008 0.000000 0.000000 0.000000 0.000000 0.000000 0.000000 -89.220367 -0.105760 6.664714 -69.174095 27.598740 -3.394807 -0.554260 -3.868061 38.835636 1.635757 -16.948189 -15.999360 -10.169695 1.729190 40.106567 0.000004 0.000029 -24.795982 -0.000025 -0.000020 -17.301401 -0.000308 -0.000001 0.000686 -13.095644 -0.050533 -8.583841 -9.797705 -0.027064 -0.022776 -10.130045 -0.014219 -0.003339 0.000021 0.000346 0.000013 -13.013618 -0.018894 -9.495596 -9.637961 -0.010977 0.000348 -9.510460 -0.000625 0.005385 0.001353 -0.000042 -0.000025 -16.195057 0.067445 -10.110077 -11.580235 0.011002 -0.063082 -11.474660 0.001016 -0.040773 0.000435 0.000014 0.000007 -17.734119 0.167868 -10.955652 -12.705241 0.023369 -0.155097 -12.617079 -0.016526 -0.175936 0.000093 0.000006 -0.000053 0.000000 0.000000 0.000000 0.000000 0.000000 0.000000 -2.483109 -11.907524 14.039052 -0.081531 -0.771937 4.693264 -0.704419 -9.412532 16.867027 -1.115015 1.131121 -17.001541 0.000000 0.000000 0.000000 0.000000 0.000000 0.000000 0.000000 0.000000 0.000000 0.379138 -4.826190 8.962929 0.102219 0.481513 10.332935 1.685355 2.473731 16.011393 0.550010 -0.482952 -20.140259 0.000000 0.000000 0.000000 0.000000 0.000000 0.000000 0.000000 0.000000 0.000000 
